<svg width="256" height="384" viewBox="0 0 256 384" fill="none" xmlns="http://www.w3.org/2000/svg">
<g clip-path="url(#clip0_1868_233)">
<rect width="256" height="384" rx="16" fill="#0F766E"/>
<rect width="51" height="384" rx="16" fill="#10554F"/>
<path d="M86.9857 207V86.6H107.282L148.046 167.956L188.638 86.6H209.106V207H191.906V116.7L154.582 190.144H141.338L104.186 116.872V207H86.9857Z" fill="white"/>
<path d="M86.9857 207H85.4857C85.4857 207.828 86.1573 208.5 86.9857 208.5V207ZM86.9857 86.6V85.1C86.1573 85.1 85.4857 85.7716 85.4857 86.6H86.9857ZM107.282 86.6L108.623 85.928C108.368 85.4205 107.849 85.1 107.282 85.1V86.6ZM148.046 167.956L146.705 168.628C146.959 169.136 147.479 169.456 148.047 169.456C148.615 169.456 149.134 169.134 149.388 168.626L148.046 167.956ZM188.638 86.6V85.1C188.069 85.1 187.549 85.4215 187.295 85.9303L188.638 86.6ZM209.106 86.6H210.606C210.606 85.7716 209.934 85.1 209.106 85.1V86.6ZM209.106 207V208.5C209.934 208.5 210.606 207.828 210.606 207H209.106ZM191.906 207H190.406C190.406 207.828 191.077 208.5 191.906 208.5V207ZM191.906 116.7H193.406C193.406 116.006 192.93 115.403 192.255 115.241C191.58 115.08 190.883 115.402 190.568 116.02L191.906 116.7ZM154.582 190.144V191.644C155.146 191.644 155.663 191.327 155.919 190.824L154.582 190.144ZM141.338 190.144L140 190.822C140.255 191.326 140.773 191.644 141.338 191.644V190.144ZM104.186 116.872L105.524 116.194C105.21 115.575 104.512 115.252 103.837 115.413C103.162 115.574 102.686 116.178 102.686 116.872H104.186ZM104.186 207V208.5C105.014 208.5 105.686 207.828 105.686 207H104.186ZM86.9857 207H88.4857V86.6H86.9857H85.4857V207H86.9857ZM86.9857 86.6V88.1H107.282V86.6V85.1H86.9857V86.6ZM107.282 86.6L105.941 87.2719L146.705 168.628L148.046 167.956L149.387 167.284L108.623 85.928L107.282 86.6ZM148.046 167.956L149.388 168.626L189.98 87.2697L188.638 86.6L187.295 85.9303L146.703 167.286L148.046 167.956ZM188.638 86.6V88.1H209.106V86.6V85.1H188.638V86.6ZM209.106 86.6H207.606V207H209.106H210.606V86.6H209.106ZM209.106 207V205.5H191.906V207V208.5H209.106V207ZM191.906 207H193.406V116.7H191.906H190.406V207H191.906ZM191.906 116.7L190.568 116.02L153.244 189.464L154.582 190.144L155.919 190.824L193.243 117.38L191.906 116.7ZM154.582 190.144V188.644H141.338V190.144V191.644H154.582V190.144ZM141.338 190.144L142.676 189.466L105.524 116.194L104.186 116.872L102.848 117.55L140 190.822L141.338 190.144ZM104.186 116.872H102.686V207H104.186H105.686V116.872H104.186ZM104.186 207V205.5H86.9857V207V208.5H104.186V207Z" fill="white"/>
<g opacity="0.7">
<rect x="74" y="220" width="148" height="8" rx="4" fill="white"/>
</g>
<g opacity="0.7">
<rect x="74" y="244" width="148" height="8" rx="4" fill="white"/>
</g>
<g opacity="0.7">
<rect x="74" y="268" width="148" height="8" rx="4" fill="white"/>
</g>
<g opacity="0.7">
<rect x="74" y="292" width="124" height="8" rx="4" fill="white"/>
</g>
</g>
<defs>
<clipPath id="clip0_1868_233">
<rect width="256" height="384" rx="16" fill="white"/>
</clipPath>
</defs>
</svg>
